<svg xmlns="http://www.w3.org/2000/svg" xmlns:xlink="http://www.w3.org/1999/xlink" aria-hidden="true" role="img" class="iconify iconify--logos" width="31.88" height="32" preserveAspectRatio="xMidYMid meet" viewBox="0 0 256 257"><defs><linearGradient id="IconifyId1813088fe1fbc01fb466" x1="-.828%" x2="57.636%" y1="7.652%" y2="78.411%"><stop offset="0%" stop-color="#41D1FF"></stop><stop offset="100%" stop-color="#BD34FE"></stop></linearGradient><linearGradient id="IconifyId1813088fe1fbc01fb467" x1="43.376%" x2="50.316%" y1="2.242%" y2="89.03%"><stop offset="0%" stop-color="#FFEA83"></stop><stop offset="8.333%" stop-color="#FFDD35"></stop><stop offset="100%" stop-color="#FFA800"></stop></linearGradient></defs><path fill="url(#IconifyId1813088fe1fbc01fb466)" d="M255.153 37.938L134.897 252.976c-2.483 4.44-8.862 4.466-11.382.048L.875 37.958c-2.746-4.814 1.371-10.646 6.827-9.67l120.385 21.517a6.537 6.537 0 0 0 2.322-.004l117.867-21.483c5.438-.991 9.574 4.796 6.877 9.62Z"></path><path fill="url(#IconifyId1813088fe1fbc01fb467)" d="M185.432.063L96.44 17.501a3.268 3.268 0 0 0-2.634 3.014l-5.53 94.192a3.268 3.268 0 0 0 3.997 3.378l24.777-5.718c2.318-.535 4.413 1.507 3.936 3.838l-7.81 33.549c-.495 2.213 1.777 4.04 3.967 3.258l33.012-11.076c2.209-.742 4.34 1.33 3.759 3.563l-21.101 68.896c-.853 2.78 2.237 5.031 4.702 3.33l95.821-68.275c2.213-1.576 1.009-5.548-1.664-5.434l-60.449 5.167c-2.599.223-4.811-2.144-4.413-4.714l11.572-69.95c.402-2.427-1.876-4.563-4.281-3.88l-67.508 19.151c-2.396.68-4.652-1.456-4.15-3.894l14.235-72.547c.515-2.622 3.783-4.152 6.203-2.804l63.866 30.664c2.401 1.152 5.156-.57 5.098-3.33l-3.614-72.698c-.059-2.76-2.871-4.457-5.405-3.088Z"></path></svg>


